# xmcd
#
# Track frame offsets:
#	150
#	11632
#	27465
#
# Disc length: 517 seconds
#
# Revision: 0
# Processed by: cddbd v1.5.2PL0 Copyright (c) Steve Scherf et al.
# Submitted via: dBpowerAMP V4.0
#
DISCID=1c020303
DTITLE=The Achievers - Waar staat hier de drank?
DYEAR=1900
DGENRE=
TTITLE0=Waar staat hier de drank
TTITLE1=Leiden Centraal
TTITLE2=Rawhide
EXTD=
EXTT0=
EXTT1=
EXTT2=
PLAYORDER=
